<svg width="24" height="24" viewBox="0 0 24 24" fill="none" xmlns="http://www.w3.org/2000/svg">
<g clip-path="url(#clip0_448_91)">
<path d="M2.57171 10.2857H4.28599C4.51332 10.2857 4.73134 10.376 4.89208 10.5368C5.05283 10.6975 5.14314 10.9155 5.14314 11.1429V15.4286C5.14314 15.6559 5.05283 15.8739 4.89208 16.0347C4.73134 16.1954 4.51332 16.2857 4.28599 16.2857H2.57171C2.11705 16.2857 1.68102 16.1051 1.35952 15.7836C1.03803 15.4621 0.857422 15.0261 0.857422 14.5714V12C0.857422 11.5453 1.03803 11.1093 1.35952 10.7878C1.68102 10.4663 2.11705 10.2857 2.57171 10.2857V10.2857Z" stroke="#043B35" stroke-width="1.5" stroke-linecap="round" stroke-linejoin="round"/>
<path d="M21.4283 16.2857H19.714C19.4867 16.2857 19.2687 16.1954 19.1079 16.0347C18.9472 15.8739 18.8569 15.6559 18.8569 15.4286V11.1429C18.8569 10.9155 18.9472 10.6975 19.1079 10.5368C19.2687 10.376 19.4867 10.2857 19.714 10.2857H21.4283C21.8829 10.2857 22.319 10.4663 22.6405 10.7878C22.962 11.1093 23.1426 11.5453 23.1426 12V14.5714C23.1426 15.0261 22.962 15.4621 22.6405 15.7836C22.319 16.1051 21.8829 16.2857 21.4283 16.2857V16.2857Z" stroke="#043B35" stroke-width="1.5" stroke-linecap="round" stroke-linejoin="round"/>
<path d="M16.2852 21C17.1945 21 18.0665 20.6388 18.7095 19.9958C19.3525 19.3528 19.7137 18.4807 19.7137 17.5714V16.2857" stroke="#043B35" stroke-width="1.5" stroke-linecap="round" stroke-linejoin="round"/>
<path d="M14.144 18.8571C14.7123 18.8571 15.2573 19.0829 15.6592 19.4848C16.0611 19.8866 16.2868 20.4317 16.2868 21C16.2868 21.5683 16.0611 22.1134 15.6592 22.5152C15.2573 22.9171 14.7123 23.1429 14.144 23.1429H11.5725C11.0042 23.1429 10.4592 22.9171 10.0573 22.5152C9.65545 22.1134 9.42969 21.5683 9.42969 21C9.42969 20.4317 9.65545 19.8866 10.0573 19.4848C10.4592 19.0829 11.0042 18.8571 11.5725 18.8571H14.144Z" stroke="#043B35" stroke-width="1.5" stroke-linecap="round" stroke-linejoin="round"/>
<path d="M4.28516 10.2857V8.57143C4.28516 6.52548 5.09791 4.56332 6.54462 3.11661C7.99133 1.6699 9.95349 0.857147 11.9994 0.857147C14.0454 0.857147 16.0076 1.6699 17.4543 3.11661C18.901 4.56332 19.7137 6.52548 19.7137 8.57143V10.2857" stroke="#043B35" stroke-width="1.5" stroke-linecap="round" stroke-linejoin="round"/>
<path d="M9.42969 6.85715V9.42858" stroke="#043B35" stroke-width="1.5" stroke-linecap="round" stroke-linejoin="round"/>
<path d="M14.5723 6.85715V9.42858" stroke="#043B35" stroke-width="1.5" stroke-linecap="round" stroke-linejoin="round"/>
<path d="M9.42969 12.8571C9.42969 15.1371 14.5725 15.1371 14.5725 12.8571" stroke="#043B35" stroke-width="1.5" stroke-linecap="round" stroke-linejoin="round"/>
</g>
<defs>
<clipPath id="clip0_448_91">
<rect width="24" height="24" fill="white"/>
</clipPath>
</defs>
</svg>
