<svg width="24" height="24" viewBox="0 0 24 24" fill="none" xmlns="http://www.w3.org/2000/svg">
<g clip-path="url(#clip0_384_17640)">
<path d="M12 17.1768V18.9082" stroke="#043B35" stroke-width="1.5" stroke-linecap="round" stroke-linejoin="round"/>
<path d="M12 8.58838V10.1998" stroke="#043B35" stroke-width="1.5" stroke-linecap="round" stroke-linejoin="round"/>
<path d="M12.0006 23.1257C18.0006 23.1257 22.2863 20.9999 22.2863 16.2685C22.2863 11.1257 19.7148 7.69709 14.572 5.12566L16.5948 2.51995C16.6976 2.34899 16.7534 2.15389 16.7564 1.95444C16.7595 1.75499 16.7098 1.55827 16.6123 1.38423C16.5148 1.21019 16.3731 1.06501 16.2014 0.963401C16.0298 0.861796 15.8343 0.807378 15.6348 0.805664H8.36627C8.16681 0.807378 7.97134 0.861796 7.79968 0.963401C7.62802 1.06501 7.48628 1.21019 7.38882 1.38423C7.29135 1.55827 7.24163 1.75499 7.2447 1.95444C7.24776 2.15389 7.30351 2.34899 7.40627 2.51995L9.42913 5.14281C4.28627 7.73138 1.71484 11.1599 1.71484 16.3028C1.71484 20.9999 6.00056 23.1257 12.0006 23.1257Z" stroke="#043B35" stroke-width="1.5" stroke-linecap="round" stroke-linejoin="round"/>
<path d="M10.2867 16.3887C10.4958 16.637 10.7591 16.8341 11.0562 16.9649C11.3534 17.0956 11.6766 17.1566 12.0009 17.143C12.4967 17.1768 12.9863 17.0171 13.3667 16.6974C13.7472 16.3777 13.9888 15.9229 14.0409 15.4287C13.9888 14.9345 13.7472 14.4798 13.3667 14.1601C12.9863 13.8404 12.4967 13.6807 12.0009 13.7145C11.5052 13.7483 11.0156 13.5885 10.6351 13.2688C10.2547 12.9491 10.013 12.4944 9.96094 12.0002C10.0088 11.5042 10.2493 11.0469 10.6308 10.7263C11.0122 10.4058 11.5042 10.2477 12.0009 10.2859C12.3196 10.2664 12.6386 10.3178 12.935 10.4363C13.2315 10.5549 13.4979 10.7377 13.7152 10.9716" stroke="#043B35" stroke-width="1.5" stroke-linecap="round" stroke-linejoin="round"/>
</g>
<defs>
<clipPath id="clip0_384_17640">
<rect width="24" height="24" fill="white"/>
</clipPath>
</defs>
</svg>
